# xmcd
#
# Track frame offsets:
#	150
#	16768
#	34875
#	54920
#	66628
#	87093
#	106630
#	123355
#	138685
#	152268
#
# Disc length: 2296 seconds
#
# Revision: 4
# Processed by: cddbd v1.5.2PL0 Copyright (c) Steve Scherf et al.
# Submitted via: EasyCDDAExtractor 15.3.0.1
#
DISCID=7708f60a
DTITLE=Mariah Carey - Merry Christmas
DYEAR=1994
DGENRE=R&B/Pop
TTITLE0=Silent Night
TTITLE1=All I Want For Christmas Is You
TTITLE2=O Holy Night
TTITLE3=Christmas (Baby Please Come Home)
TTITLE4=Miss You Most (At Christmas Time)
TTITLE5=Joy To The World
TTITLE6=Jesus Born On This Day
TTITLE7=Santa Claus Is Comin' To Town
TTITLE8=Hark! The Herald Angels Sing, Gloria (In Excelsis Deo)
TTITLE9=Jesus Oh What A Wonderful Child
EXTD=YEAR: 1994
EXTT0=
EXTT1=
EXTT2=
EXTT3=
EXTT4=
EXTT5=
EXTT6=
EXTT7=
EXTT8=
EXTT9=
PLAYORDER=
